<?xml version="1.0" encoding="iso-8859-1"?>
<!-- Uploaded to: SVG Repo, www.svgrepo.com, Generator: SVG Repo Mixer Tools -->
<svg height="800px" width="800px" version="1.1" id="Layer_1" xmlns="http://www.w3.org/2000/svg" xmlns:xlink="http://www.w3.org/1999/xlink" 
	 viewBox="0 0 512 512" xml:space="preserve">
<path style="fill:#FFB655;" d="M488.727,66.494H256H23.273C10.42,66.494,0,76.914,0,89.767v332.466
	c0,12.853,10.42,23.273,23.273,23.273H256h232.727c12.853,0,23.273-10.42,23.273-23.273V89.767
	C512,76.914,501.58,66.494,488.727,66.494z"/>
<g>
	<path style="fill:#3D6DEB;" d="M189.37,211.688c-3.946,0-7.278,2.363-8.493,6.023c-0.02,0.056-0.037,0.115-0.056,0.172
		l-13.23,44.145l-13.275-44.055c-1.032-3.767-4.493-6.285-8.678-6.285c-4.887,0-10.164,3.488-10.164,9.121
		c0,0.455,0,1.541,0.444,2.771l21.673,70.304c1.243,4.225,5.173,6.954,10.013,6.954c4.827,0,8.788-2.689,10.1-6.886l21.658-70.592
		c0.093-0.299,0.161-0.607,0.206-0.917c0.09-0.403,0.169-0.914,0.169-1.527C199.739,215.395,194.377,211.688,189.37,211.688z"/>
	<path style="fill:#3D6DEB;" d="M222.476,211.688c-5.589,0-9.643,3.662-9.643,8.706v70.906c0,5.08,4.146,8.91,9.643,8.91
		c5.407,0,9.643-3.913,9.643-8.91v-70.906C232.118,215.43,227.973,211.688,222.476,211.688z"/>
	<path style="fill:#3D6DEB;" d="M376.148,288.542l-21.703-70.841c-1.345-4.032-5.291-6.637-10.052-6.637
		c-4.782,0-8.701,2.648-9.993,6.775l-21.689,70.467c-0.451,1.238-0.451,2.327-0.451,2.785c0,5.634,5.275,9.12,10.164,9.12
		c4.188,0,7.654-2.521,8.681-6.295l3.44-11.511h19.594l3.466,11.604c0.019,0.061,0.036,0.119,0.056,0.177
		c1.213,3.658,4.549,6.023,8.495,6.023c5.008,0,10.37-3.707,10.37-9.225c0-0.608-0.079-1.114-0.168-1.524
		C376.311,289.149,376.241,288.843,376.148,288.542z M340.055,264.058l4.315-14.252l4.279,14.252H340.055z"/>
	<path style="fill:#3D6DEB;" d="M278.689,244.316c-8.51-3.128-10.653-4.43-10.653-8.305c0-1.907,0-5.872,8.89-5.872
		c4.754,0,7.263,1.291,9.278,2.327c1.483,0.763,3.167,1.629,5.297,1.629c5.438,0,9.227-5.3,9.227-10.058
		c0-9.931-15.503-12.558-23.699-12.558c-1.108,0-2.188,0.04-3.24,0.118c-0.225,0.016-0.434,0.051-0.658,0.071
		c-0.824,0.074-1.643,0.155-2.431,0.276c-0.183,0.029-0.355,0.073-0.538,0.102c-0.811,0.137-1.618,0.285-2.389,0.472
		c-0.116,0.029-0.223,0.067-0.338,0.096c-0.827,0.209-1.638,0.438-2.417,0.703c-0.053,0.019-0.104,0.042-0.158,0.061
		c-0.83,0.29-1.635,0.604-2.408,0.954c-0.011,0.005-0.019,0.011-0.029,0.014c-2.442,1.116-4.594,2.537-6.425,4.239
		c-0.002,0-0.002,0.002-0.002,0.002c-0.002,0.002-0.003,0.003-0.005,0.005c-1.744,1.623-3.198,3.502-4.333,5.613
		c-0.008,0.012-0.012,0.025-0.019,0.036c-0.369,0.689-0.706,1.403-1.005,2.143c-0.033,0.078-0.056,0.161-0.087,0.242
		c-0.268,0.678-0.515,1.37-0.725,2.088c-0.056,0.194-0.093,0.4-0.144,0.597c-0.164,0.619-0.326,1.243-0.447,1.89
		c-0.07,0.383-0.107,0.788-0.163,1.181c-0.068,0.486-0.154,0.96-0.197,1.458c-0.082,0.909-0.124,1.842-0.124,2.796
		c0,1.069,0.05,2.09,0.143,3.067c0.042,0.43,0.121,0.819,0.18,1.233c0.073,0.521,0.13,1.06,0.228,1.555
		c0.105,0.524,0.251,1.005,0.385,1.5c0.092,0.341,0.163,0.7,0.267,1.026c0.178,0.563,0.396,1.088,0.611,1.615
		c0.09,0.219,0.161,0.455,0.258,0.667c0.259,0.582,0.551,1.126,0.852,1.66c0.073,0.129,0.135,0.27,0.209,0.396
		c0.341,0.58,0.711,1.126,1.095,1.652c0.047,0.064,0.088,0.133,0.135,0.197c0.419,0.56,0.863,1.089,1.323,1.595
		c0.019,0.022,0.036,0.043,0.054,0.065c0.484,0.524,0.988,1.021,1.51,1.491c4.361,3.928,9.955,6.045,14.67,7.817
		c9.37,3.522,12.648,5.326,12.648,11.739c0,4.037-1.106,8.163-9.306,8.163c-6.231,0-8.519-2.467-10.539-4.644
		c-1.567-1.688-3.711-3.998-7.267-3.998c-0.07,0-0.137,0.011-0.206,0.014c-2.942,0.076-5.461,1.763-7.1,4.056
		c-0.008,0.011-0.014,0.022-0.022,0.031c-0.172,0.244-0.337,0.493-0.489,0.751c-0.023,0.036-0.04,0.076-0.062,0.112
		c-0.133,0.231-0.264,0.467-0.382,0.706c-0.033,0.07-0.059,0.14-0.092,0.209c-0.099,0.213-0.197,0.424-0.282,0.641
		c-0.037,0.099-0.067,0.203-0.102,0.304c-0.067,0.188-0.138,0.377-0.194,0.568c-0.039,0.137-0.067,0.276-0.101,0.414
		c-0.039,0.158-0.085,0.315-0.116,0.473c-0.033,0.175-0.054,0.354-0.079,0.529c-0.017,0.121-0.042,0.242-0.054,0.363
		c-0.031,0.296-0.045,0.594-0.045,0.889c0,0.538,0.056,1.081,0.155,1.626c0.028,0.151,0.082,0.299,0.115,0.452
		c0.095,0.399,0.191,0.797,0.334,1.196c0.056,0.157,0.133,0.309,0.195,0.464c0.161,0.399,0.334,0.797,0.545,1.192
		c0.073,0.135,0.158,0.268,0.236,0.403c0.239,0.417,0.495,0.832,0.788,1.243c0.076,0.104,0.16,0.209,0.236,0.313
		c0.33,0.439,0.681,0.874,1.067,1.302c0.065,0.071,0.135,0.144,0.202,0.216c0.427,0.458,0.881,0.906,1.372,1.344
		c0.047,0.042,0.093,0.084,0.141,0.124c0.529,0.465,1.089,0.918,1.687,1.356c0.022,0.016,0.04,0.033,0.062,0.047
		c0.628,0.458,1.291,0.898,1.988,1.32c0.569,0.344,1.164,0.672,1.776,0.987c0.061,0.031,0.118,0.062,0.177,0.092
		c0.566,0.289,1.154,0.56,1.756,0.821c0.129,0.056,0.259,0.11,0.389,0.164c0.552,0.23,1.12,0.45,1.699,0.656
		c0.209,0.074,0.42,0.144,0.633,0.214c0.528,0.177,1.064,0.348,1.61,0.501c0.296,0.084,0.6,0.158,0.901,0.233
		c0.492,0.126,0.987,0.25,1.493,0.355c0.396,0.084,0.802,0.151,1.206,0.222c0.441,0.079,0.88,0.161,1.331,0.227
		c0.528,0.073,1.067,0.123,1.609,0.175c0.354,0.034,0.7,0.082,1.058,0.107c0.915,0.064,1.843,0.099,2.788,0.099
		c17.379,0,28.176-10.595,28.176-27.653C302.603,253.103,288.213,247.815,278.689,244.316z"/>
</g>
<g>
	<path style="fill:#D6D5D8;" d="M256,254.355L256,254.355c4.361,3.928,9.955,6.045,14.67,7.817
		C265.954,260.399,260.361,258.283,256,254.355z"/>
	<path style="fill:#D6D5D8;" d="M256.206,273.429c-0.07,0-0.137,0.011-0.206,0.014l0,0
		C256.07,273.44,256.137,273.429,256.206,273.429z"/>
</g>
<path style="fill:#E69629;" d="M254.012,294.764c-0.022-0.016-0.04-0.033-0.062-0.047c-0.597-0.438-1.159-0.889-1.687-1.356
	c-0.048-0.04-0.095-0.082-0.141-0.124c-0.49-0.438-0.945-0.884-1.372-1.344c-0.068-0.071-0.137-0.144-0.202-0.216
	c-0.386-0.427-0.74-0.863-1.069-1.302c-0.079-0.104-0.161-0.209-0.236-0.313c-0.292-0.411-0.549-0.825-0.788-1.243
	c-0.079-0.135-0.163-0.268-0.236-0.403c-0.209-0.394-0.382-0.793-0.545-1.192c-0.062-0.155-0.14-0.307-0.196-0.464
	c-0.141-0.399-0.24-0.797-0.334-1.196c-0.033-0.152-0.088-0.301-0.115-0.452c-0.099-0.545-0.155-1.088-0.155-1.626
	c0-0.296,0.016-0.593,0.045-0.889c0.012-0.121,0.037-0.242,0.054-0.363c0.025-0.175,0.045-0.354,0.079-0.529
	c0.033-0.158,0.078-0.315,0.116-0.473c0.036-0.138,0.062-0.278,0.102-0.414c0.056-0.191,0.127-0.38,0.194-0.568
	c0.036-0.101,0.065-0.205,0.102-0.304c0.085-0.217,0.182-0.428,0.282-0.641c0.031-0.07,0.057-0.14,0.092-0.209
	c0.118-0.239,0.248-0.475,0.382-0.706c0.022-0.036,0.039-0.076,0.062-0.112c0.154-0.258,0.317-0.506,0.49-0.751
	c0.008-0.009,0.014-0.022,0.022-0.031c1.64-2.298,4.157-3.98,7.1-4.056v-19.09c-0.521-0.47-1.026-0.967-1.51-1.491
	c-0.019-0.022-0.036-0.043-0.054-0.065c-0.461-0.506-0.905-1.035-1.323-1.595c-0.047-0.064-0.088-0.133-0.135-0.197
	c-0.385-0.529-0.754-1.072-1.095-1.654c-0.074-0.126-0.137-0.267-0.209-0.396c-0.298-0.537-0.593-1.078-0.852-1.66
	c-0.096-0.213-0.168-0.448-0.258-0.667c-0.214-0.528-0.431-1.05-0.611-1.615c-0.102-0.326-0.175-0.686-0.267-1.026
	c-0.133-0.493-0.279-0.976-0.385-1.5c-0.098-0.495-0.157-1.033-0.228-1.555c-0.059-0.414-0.138-0.804-0.18-1.233
	c-0.093-0.977-0.143-1.997-0.143-3.067c0-0.954,0.042-1.887,0.124-2.796c0.043-0.498,0.129-0.974,0.197-1.458
	c0.056-0.393,0.095-0.797,0.163-1.181c0.121-0.649,0.284-1.268,0.447-1.89c0.051-0.197,0.088-0.403,0.144-0.597
	c0.209-0.718,0.458-1.409,0.725-2.088c0.031-0.081,0.054-0.164,0.087-0.242c0.298-0.74,0.638-1.452,1.005-2.143
	c0.006-0.012,0.011-0.025,0.019-0.036c1.133-2.115,2.589-3.989,4.333-5.613c0.002-0.002,0.003-0.003,0.005-0.005V66.494H23.273
	C10.42,66.494,0,76.914,0,89.767v332.466c0,12.853,10.42,23.273,23.273,23.273H256V296.083
	C255.303,295.664,254.641,295.222,254.012,294.764z M199.57,222.441c-0.045,0.31-0.113,0.616-0.206,0.917l-21.658,70.592
	c-1.313,4.195-5.272,6.886-10.1,6.886c-4.841,0-8.771-2.729-10.013-6.954l-21.673-70.304c-0.444-1.23-0.444-2.316-0.444-2.771
	c0-5.634,5.275-9.121,10.164-9.121c4.184,0,7.646,2.518,8.678,6.285l13.275,44.055l13.23-44.145
	c0.019-0.057,0.036-0.116,0.056-0.172c1.213-3.658,4.547-6.023,8.493-6.023c5.008,0,10.37,3.708,10.37,9.227
	C199.739,221.528,199.658,222.038,199.57,222.441z M232.118,291.299c0,4.997-4.236,8.91-9.643,8.91c-5.497,0-9.643-3.831-9.643-8.91
	v-70.906c0-5.044,4.054-8.706,9.643-8.706c5.497,0,9.643,3.742,9.643,8.706V291.299z"/>
<g>
	<path style="fill:#C3C3C7;" d="M249.237,231.2c0.121-0.647,0.282-1.269,0.447-1.89C249.519,229.931,249.358,230.551,249.237,231.2z
		"/>
	<path style="fill:#C3C3C7;" d="M249.688,243.989c-0.133-0.493-0.279-0.976-0.385-1.5
		C249.409,243.013,249.555,243.494,249.688,243.989z"/>
	<path style="fill:#C3C3C7;" d="M248.875,233.839c0.043-0.498,0.129-0.974,0.197-1.458
		C249.004,232.865,248.919,233.341,248.875,233.839z"/>
	<path style="fill:#C3C3C7;" d="M249.074,240.934c-0.059-0.414-0.138-0.804-0.18-1.233
		C248.936,240.13,249.015,240.521,249.074,240.934z"/>
	<path style="fill:#C3C3C7;" d="M253.95,294.717c-0.597-0.438-1.157-0.891-1.687-1.356
		C252.791,293.828,253.353,294.28,253.95,294.717z"/>
	<path style="fill:#C3C3C7;" d="M249.827,228.713c0.209-0.718,0.456-1.41,0.725-2.088
		C250.284,227.304,250.036,227.994,249.827,228.713z"/>
	<path style="fill:#C3C3C7;" d="M254.012,294.764c0.628,0.458,1.291,0.898,1.987,1.32l0,0
		C255.303,295.664,254.641,295.222,254.012,294.764z"/>
	<path style="fill:#C3C3C7;" d="M254.49,252.862c0.484,0.524,0.988,1.021,1.51,1.491l0,0
		C255.479,253.885,254.974,253.386,254.49,252.862z"/>
	<path style="fill:#C3C3C7;" d="M256,273.443L256,273.443c-2.945,0.076-5.461,1.758-7.1,4.056
		C250.539,275.205,253.058,273.519,256,273.443z"/>
	<path style="fill:#C3C3C7;" d="M251.662,224.204c1.136-2.112,2.589-3.991,4.333-5.613
		C254.251,220.215,252.796,222.089,251.662,224.204z"/>
	<path style="fill:#C3C3C7;" d="M250.638,226.382c0.299-0.74,0.636-1.454,1.005-2.143
		C251.276,224.932,250.936,225.644,250.638,226.382z"/>
	<path style="fill:#C3C3C7;" d="M247.057,281.708c0.033-0.158,0.078-0.315,0.116-0.473
		C247.135,281.393,247.09,281.551,247.057,281.708z"/>
	<path style="fill:#C3C3C7;" d="M247.276,280.822c0.056-0.191,0.127-0.38,0.194-0.568
		C247.403,280.442,247.332,280.631,247.276,280.822z"/>
	<path style="fill:#C3C3C7;" d="M247.034,285.117c-0.099-0.545-0.155-1.088-0.155-1.626
		C246.879,284.027,246.934,284.572,247.034,285.117z"/>
	<path style="fill:#C3C3C7;" d="M250.565,246.63c-0.216-0.527-0.431-1.052-0.611-1.615
		C250.134,245.579,250.351,246.102,250.565,246.63z"/>
	<path style="fill:#C3C3C7;" d="M247.482,286.763c-0.143-0.399-0.239-0.798-0.334-1.196
		C247.242,285.967,247.341,286.364,247.482,286.763z"/>
	<path style="fill:#C3C3C7;" d="M248.221,288.418c-0.211-0.394-0.382-0.793-0.545-1.192
		C247.839,287.625,248.013,288.024,248.221,288.418z"/>
	<path style="fill:#C3C3C7;" d="M246.924,282.602c0.012-0.121,0.037-0.242,0.054-0.363
		C246.962,282.358,246.936,282.479,246.924,282.602z"/>
	<path style="fill:#C3C3C7;" d="M247.572,279.95c0.085-0.217,0.182-0.428,0.282-0.641
		C247.755,279.52,247.658,279.733,247.572,279.95z"/>
	<path style="fill:#C3C3C7;" d="M249.245,290.063c-0.293-0.411-0.549-0.825-0.788-1.243
		C248.697,289.237,248.955,289.652,249.245,290.063z"/>
	<path style="fill:#C3C3C7;" d="M248.39,278.281c0.154-0.258,0.316-0.507,0.49-0.751
		C248.706,277.775,248.542,278.023,248.39,278.281z"/>
	<path style="fill:#C3C3C7;" d="M247.946,279.1c0.118-0.239,0.248-0.475,0.382-0.706C248.194,278.625,248.064,278.859,247.946,279.1
		z"/>
	<path style="fill:#C3C3C7;" d="M251.674,248.957c-0.299-0.535-0.593-1.078-0.852-1.66
		C251.082,247.879,251.376,248.42,251.674,248.957z"/>
	<path style="fill:#C3C3C7;" d="M254.436,252.798c-0.461-0.506-0.905-1.035-1.323-1.595
		C253.532,251.764,253.975,252.291,254.436,252.798z"/>
	<path style="fill:#C3C3C7;" d="M252.979,251.005c-0.385-0.527-0.754-1.072-1.095-1.654
		C252.224,249.933,252.594,250.476,252.979,251.005z"/>
	<path style="fill:#C3C3C7;" d="M252.123,293.237c-0.49-0.438-0.943-0.886-1.372-1.344
		C251.178,292.353,251.634,292.8,252.123,293.237z"/>
	<path style="fill:#C3C3C7;" d="M250.55,291.678c-0.386-0.427-0.739-0.863-1.069-1.302
		C249.811,290.815,250.163,291.251,250.55,291.678z"/>
</g>
<g>
	<path style="fill:#DEDEE0;" d="M273.791,211.596c1.052-0.078,2.132-0.118,3.24-0.118
		C275.923,211.479,274.843,211.519,273.791,211.596z"/>
	<path style="fill:#DEDEE0;" d="M271.639,300.838c-0.357-0.026-0.704-0.073-1.058-0.107
		C270.935,300.765,271.282,300.813,271.639,300.838z"/>
	<path style="fill:#DEDEE0;" d="M268.972,300.556c-0.451-0.064-0.891-0.147-1.331-0.225
		C268.083,300.408,268.521,300.492,268.972,300.556z"/>
	<path style="fill:#DEDEE0;" d="M262.454,214.332c0.773-0.352,1.578-0.666,2.408-0.954
		C264.032,213.665,263.227,213.981,262.454,214.332z"/>
	<path style="fill:#DEDEE0;" d="M267.774,212.518c0.771-0.186,1.578-0.335,2.389-0.472
		C269.351,212.183,268.547,212.333,267.774,212.518z"/>
	<path style="fill:#DEDEE0;" d="M256.002,218.584c1.831-1.704,3.981-3.125,6.425-4.239
		C259.98,215.457,257.834,216.881,256.002,218.584z"/>
	<path style="fill:#DEDEE0;" d="M270.702,211.944c0.79-0.121,1.607-0.202,2.431-0.276
		C272.31,211.742,271.49,211.823,270.702,211.944z"/>
	<path style="fill:#DEDEE0;" d="M265.021,213.315c0.779-0.265,1.589-0.493,2.417-0.703
		C266.609,212.822,265.799,213.05,265.021,213.315z"/>
	<path style="fill:#DEDEE0;" d="M256,296.084c0.569,0.344,1.164,0.672,1.777,0.987C257.164,296.756,256.569,296.429,256,296.084
		L256,296.084z"/>
	<path style="fill:#DEDEE0;" d="M259.71,297.983c-0.602-0.261-1.19-0.534-1.756-0.821
		C258.521,297.449,259.106,297.723,259.71,297.983z"/>
	<path style="fill:#DEDEE0;" d="M266.435,300.109c-0.506-0.105-1.001-0.23-1.493-0.355
		C265.436,299.878,265.927,300.002,266.435,300.109z"/>
	<path style="fill:#DEDEE0;" d="M264.042,299.519c-0.548-0.155-1.083-0.324-1.61-0.501
		C262.959,299.195,263.492,299.364,264.042,299.519z"/>
	<path style="fill:#DEDEE0;" d="M261.796,298.804c-0.579-0.206-1.145-0.425-1.699-0.656
		C260.651,298.379,261.216,298.598,261.796,298.804z"/>
</g>
</svg>